<?xml version="1.0" encoding="UTF-8"?>
<svg id="Layer_2" data-name="Layer 2" xmlns="http://www.w3.org/2000/svg" viewBox="0 0 20.77 20.77">
  <defs>
    <style>
      .cls-1 {
        fill: #fff;
      }

      .cls-2 {
        fill: #5a9da4;
      }
    </style>
  </defs>
  <g id="_レイヤー_1" data-name="レイヤー 1">
    <g>
      <circle class="cls-2" cx="10.38" cy="10.38" r="10.38"/>
      <g id="NcMagb">
        <g>
          <path class="cls-1" d="m16.12,8.78c.5.16.61.6.72,1.03.16.65.03,1.27-.27,1.85-.18.35-.45.61-.81.79-.29.14-.54.36-.84.56-.06-.01-.16-.03-.27-.05-.17.38-.44.58-.86.61-.13,0-.24.17-.37.24-.2.12-.41.23-.61.35-.25.14-.49.29-.73.44-.1.06-.18.13-.28.19-.39.23-.77.46-1.17.68-.23.13-.48.22-.72.33-.1.05-.2.11-.29.18-.42.4-.91.57-1.49.57-.44,0-.86-.06-1.24-.26-.3-.16-.55-.42-.77-.66-.06-.15-.09-.38-.2-.45-.44-.27-.45-.72-.49-1.14-.04-.39-.04-.8,0-1.19.06-.52.22-1.04.56-1.42.27-.3.68-.47,1.03-.7.25-.13.5-.26.75-.39.15-.08.3-.18.44-.27.22-.14.44-.28.65-.41.02.03.03.05.05.08.32-.3.64-.6.97-.91-.02-.02-.03-.04-.05-.06-.03-.13-.07-.26-.1-.4-.36-.15-.72-.14-1.08.01-.06.03-.13.05-.19.08-.59.37-1.18.75-1.78,1.11-.13.08-.3.11-.51.18-.18-.06-.4-.15-.67-.24-.02-.2-.07-.42-.07-.63,0-.83,0-1.66.04-2.48,0-.16.11-.33.18-.48.14-.29.27-.59.45-.85.27-.39.7-.56,1.13-.72.13-.05.26-.09.43-.16h.97c.08.07.15.14.23.21,1.39.55,2.15.98,2.34,1.23.44.24.74.43,1.06.58.44.21.76.62,1.28.72.27.05.5.28.75.42.3.18.61.36.91.53.16.09.32.18.48.27.01.1.03.19.04.28.14.12.27.23.41.34v-.02Z"/>
          <path class="cls-1" d="m16.12,8.63l.02.02-.02-.02Z"/>
        </g>
      </g>
    </g>
  </g>
</svg>