<?xml version="1.0" encoding="UTF-8"?>
<svg id="Layer_2" data-name="Layer 2" xmlns="http://www.w3.org/2000/svg" viewBox="0 0 20.77 20.63">
  <defs>
    <style>
      .cls-1 {
        fill: #5a9da4;
      }
    </style>
  </defs>
  <g id="_レイヤー_1" data-name="レイヤー 1">
    <g id="_0UXRFz" data-name="0UXRFz">
      <path class="cls-1" d="m20.77,9.76v1.1c-.01.09-.02.17-.03.26-.11.68-.17,1.37-.35,2.03-.42,1.59-1.2,2.99-2.31,4.2-1.26,1.39-2.8,2.36-4.58,2.94-.26.08-.53.14-.79.21v-8.63h2.47v-2.88h-2.55c.05-.53.07-1.03.17-1.52.1-.49.36-.9.82-1.15.31-.17.64-.22.98-.2.38.03.76.08,1.15.13,0,0,.02-.03.02-.06.05-.92.09-1.85.14-2.77,0-.11-.04-.15-.14-.17-1.03-.24-2.06-.3-3.1-.1-1.03.2-1.93.66-2.62,1.47-.78.91-1.13,2-1.24,3.17-.04.39-.04.79-.06,1.21h-1.61v2.87h1.62v8.74s-.06,0-.08,0c-1.22-.2-2.36-.61-3.43-1.23-1.24-.71-2.3-1.64-3.15-2.78-.99-1.32-1.64-2.79-1.92-4.41-.07-.39-.11-.79-.16-1.18v-1.26c.01-.05.03-.1.03-.15.12-1.66.61-3.2,1.49-4.62C4.21.63,9.52-1.16,14.25.78c3.62,1.48,5.73,4.24,6.4,8.1.05.29.08.59.12.88Z"/>
    </g>
  </g>
</svg>