<?xml version="1.0" encoding="UTF-8"?>
<svg id="Layer_2" data-name="Layer 2" xmlns="http://www.w3.org/2000/svg" viewBox="0 0 189.5 117.02">
  <defs>
    <style>
      .cls-1 {
        fill: #5a9da4;
      }

      .cls-2 {
        fill: #666;
      }
    </style>
  </defs>
  <g id="_レイヤー_1" data-name="レイヤー 1">
    <g>
      <g>
        <path class="cls-1" d="m21.7,55.25c.35,6.33.46,13.28-.08,20.17-.61,7.81-4.88,13.45-11.88,16.87-2.12,1.04-4.41,1.83-6.86,1.82-1.41-.01-2.67-.29-2.85-2-.18-1.71.86-2.58,2.35-2.91,1.64-.36,3.27-.73,4.9-1.19,4.74-1.34,9.77-8.88,9.7-14.51-.17-13.09-.03-26.19,0-39.29,0-.77,0-1.55.11-2.31.2-1.23,1.1-1.85,2.24-1.97,1.31-.14,1.98.74,2.23,1.88.17.74.15,1.53.15,2.3.01,6.85,0,13.7,0,21.15Z"/>
        <g>
          <path class="cls-1" d="m63.22,45.22h-.01c0-3.86,0-7.71,0-11.57,0-1.28-.48-2.28-1.84-2.57-.98-.21-1.85.03-2.43.91-.49.74-.52,1.6-.52,2.45,0,6.24-.09,12.48.02,18.72.15,7.8-4.54,13.97-11.73,15.15-6.96,1.15-13.41-3.49-15.22-10.76-.82-3.29-.67-6.58-.7-9.88-.05-4.47-.03-8.94,0-13.42.01-1.68-.73-2.69-2.4-2.77-1.63-.08-2.29,1.02-2.46,2.48-.08.69-.09,1.39-.06,2.08.17,3.77.11,7.54.06,11.32-.07,5.36-.3,10.82,2.44,15.78,3.38,6.11,8.2,10.07,15.45,10.49,10.64.61,19.44-8.93,19.4-18.93-.01-3.16,0-6.32,0-9.48Z"/>
          <path class="cls-1" d="m45.11,64.35c5.42-.26,9.55-4.72,9.72-10.63.09-3.08.02-6.16.02-9.24.01,0,.03,0,.04,0,0-2.93,0-5.85,0-8.78,0-1.81.49-3.94-2.2-4.28-1.84-.23-2.52.96-2.55,4.23-.07,6.01,0,12.02-.25,18.02-.15,3.69-2.29,5.6-5.47,5.52-2.65-.06-4.69-2.35-4.94-5.71-.16-2.23-.21-4.46-.23-6.69-.04-4.16,0-8.32-.02-12.48-.01-1.44-.48-2.68-2.2-2.66-1.54.01-2.47.94-2.48,2.47-.03,6.78-.28,13.57.09,20.33.32,5.83,5.27,10.15,10.48,9.9Z"/>
        </g>
        <path class="cls-1" d="m12.88,53.39c0,6.47-.02,12.93,0,19.4.02,5.26-2.41,9.09-6.7,11.9-.93.61-1.97.83-3.04.96-1.39.18-2.15-.49-2.59-1.74-.53-1.49.15-2.4,1.42-2.94,2.32-.99,4.38-2.19,5.34-4.74.55-1.47.8-2.96.8-4.51-.05-11.7-.1-23.4-.13-35.1,0-1.38.1-2.77.18-4.15.09-1.56.89-2.47,2.5-2.37,1.67.1,2.36,1.02,2.35,2.75-.06,6.85-.03,13.7-.03,20.55-.03,0-.06,0-.09,0Z"/>
        <path class="cls-1" d="m15.24,19.34c3.13.02,6.07,2.69,6.39,5.82.11,1.04.11,2.11-1.18,2.38-1.29.28-2.7.45-3.33-1.14-.41-1.04-.72-2.09-2.05-2.14-1.4-.04-1.62,1.1-2.02,2.11-.62,1.57-1.92,1.52-3.28,1.21-1.5-.35-1.61-1.45-1.41-2.68.51-3.17,3.51-5.59,6.88-5.57Z"/>
        <g>
          <path class="cls-1" d="m186.66,41.18c-1.46-.08-2.9.07-4.29.68-4.76,2.09-7.93,5.72-10.07,10.35-.94,2.02-1.69,4.14-2.77,6.09-1.96,3.57-3.89,7.23-8.01,8.87-.79-.03-1.41.27-1.84.93-1.44.19-2.89.36-4.33.58-1.97.3-3.08,2.11-2.24,3.68.68,1.27,1.95,1.39,3.21,1.38,6.04-.04,10.45-3.13,14.09-7.62,2.2-2.72,3.76-5.81,5.05-9.04.95-2.37,2.09-4.68,3.59-6.7,1.91-2.58,4.38-4.49,7.85-4.7,1.37-.08,2.68-.78,2.61-2.39-.07-1.64-1.48-2.04-2.84-2.12Z"/>
          <path class="cls-1" d="m155.41,63.55c4.74.16,8.39-1.94,10.73-5.96,2.05-3.51,3.7-7.25,5.53-10.89,2.74-5.47,6.91-8.73,13.25-8.7.38.01.77.05,1.15.05,1.45,0,2.92-.12,3.11-1.96.2-1.89-1.12-2.52-2.71-2.78-.45-.07-.92-.15-1.37-.15-5.94.01-10.91,2.1-14.76,6.76-2.99,3.62-4.57,7.99-6.62,12.11-1.79,3.59-3.85,6.66-8.51,6.56-1.47-.03-2.8.72-2.79,2.46,0,1.87,1.42,2.46,2.99,2.51Z"/>
        </g>
        <path class="cls-1" d="m147.02,67.66c-5.99.02-11.97-.06-17.96-.05-6.19,0-10.96-2.53-14.19-7.86-.03-.76-.29-1.4-.94-1.84-4-9.39.67-17.95,9.23-20.79,7.28-2.41,15.17-.22,19.05,5.4,2.01,2.91,2.53,6.22,2.69,9.65.08,1.62.66,2.99,2.53,2.96,1.99-.04,2.58-1.46,2.43-3.2-.16-1.91-.23-3.88-.72-5.72-2.24-8.42-9.04-13.88-18.09-14.68-10.99-.96-20.06,5.53-22.76,14.37-3.71,12.17,5.43,25.68,18.14,26.68,6.88.54,13.83.15,20.75.12,1.6,0,3.04-.64,2.99-2.48-.05-1.86-1.33-2.57-3.15-2.56Z"/>
        <g>
          <path class="cls-1" d="m80.89,40.82c-4.09,2.33-5.22,6.22-5.21,10.62.01,5.39.02,10.78.05,16.16,0,1.08.12,2.15.24,3.22.14,1.32.84,2.15,2.22,2.2,1.4.05,2.1-.82,2.33-2.09.13-.68.18-1.38.18-2.07.01-5.39,0-10.79,0-16.18,0-1.31-.04-2.63.12-3.92.29-2.38,2.01-4.11,4.3-4.5,2.5-.44,4.18.47,5.47,2.82.66,1.21.78,2.48.78,3.8,0,6.15-.02,12.31-.01,18.47,0,2.22.98,3.62,2.51,3.44,1.91-.22,2.44-1.6,2.44-3.33-.02-3.24,0-6.47,0-9.71h0c0-3.39.13-6.79-.03-10.17-.37-8.12-8.47-12.72-15.41-8.77Z"/>
          <path class="cls-1" d="m104.81,49.92c-.16-11.89-9.15-20.08-20.98-18.86-6.03.62-10.89,3.53-13.81,9.13-.54.55-.94,1.17-.93,1.97,0,0,0-.01.01-.02-.21.29-.15.7-.45.94,0,0,0-.02,0-.02-.86,1.32-1.35,2.8-1.35,4.35-.02,7.85.03,15.7.07,23.55,0,1.53.83,2.56,2.34,2.62,1.66.06,2.48-1.08,2.59-2.64.1-1.38-.06-2.77.02-4.16.45-7.88-.95-15.85,1.06-23.66.42-.55.87-1.07,1.25-1.65,4.39-6.62,14.55-7.88,20.52-2.64,3.83,3.36,4.78,7.73,4.81,12.5.04,6.16.04,12.33.05,18.49,0,1.63.45,3.05,2.32,3.1,2.01.05,2.49-1.43,2.49-3.15-.01-6.62.05-13.24-.04-19.86Z"/>
        </g>
        <path class="cls-1" d="m146.6,58.45c-3.76,0-7.53.07-11.29-.04-3.05-.09-6.16.4-9.14-.64-.77-.27-1.88-.56-1.72-1.55.16-1.03,1.28-.56,1.97-.57,4-.05,7.99-.03,11.99-.05,1.73-.01,3.07-.62,3.12-2.61.12-4.93-1.38-9.19-5.81-11.78-4.58-2.67-9.35-2.49-13.77.35-4.48,2.89-6.17,8.24-4.55,13.17,1.75,5.35,6.34,8.76,11.71,8.73,2.69-.02,5.38,0,8.07,0,0-.01,0-.02,0-.03,3.15,0,6.3,0,9.45,0,1.68,0,2.88-.65,2.89-2.53.01-1.92-1.23-2.45-2.91-2.45Zm-24.39-9.73c.88-2.68,3.59-4.6,6.72-4.69,3.01-.08,5.82,1.66,6.78,4.21.75,1.99.45,2.51-1.63,2.61-1.6.07-3.22.01-4.82.01,0-.05,0-.09,0-.14-1.91,0-3.83.03-5.74-.01-1.32-.03-1.73-.72-1.31-2Z"/>
      </g>
      <g>
        <path class="cls-2" d="m12.97,2.32h-3.56V.27h9.56v2.07h-3.53v9.12h-2.47V2.32Z"/>
        <path class="cls-2" d="m26.95,11.6c-3.2,0-5.79-2.59-5.79-5.79S23.75,0,26.95,0s5.81,2.59,5.81,5.81-2.62,5.79-5.81,5.79Zm-3.42-5.79c0,1.87,1.55,3.42,3.42,3.42s3.39-1.55,3.39-3.42-1.52-3.44-3.39-3.44-3.42,1.57-3.42,3.44Z"/>
        <path class="cls-2" d="m46.43,11.46h-2.45l-1.9-7.63h-.03l-1.87,7.63h-2.5L34.72.25h2.47l1.59,7.66.22-.03,1.95-7.63h2.31l1.92,7.73.22.02,1.65-7.74h2.42l-3.01,11.21Z"/>
        <path class="cls-2" d="m54.26,6.99v2.39h6.33v2.07h-8.71V.2h8.18v2.07h-5.79v2.53h5.12v2.18h-5.12Z"/>
        <path class="cls-2" d="m63.67,11.38V.2h2.42v9.11h5.75v2.07h-8.17Z"/>
        <path class="cls-2" d="m81.12.25h5.28c2.14,0,3.58.69,3.58,2.78,0,1.13-.52,1.85-1.52,2.34,1.38.39,2.06,1.44,2.06,2.84,0,2.28-1.93,3.25-3.96,3.25h-5.43V.25Zm2.46,4.54h2.5c.88,0,1.51-.39,1.51-1.33,0-1.05-.82-1.29-1.7-1.29h-2.31v2.62Zm0,4.76h2.64c.96,0,1.82-.31,1.82-1.48s-.71-1.6-1.77-1.6h-2.69v3.08Z"/>
        <path class="cls-2" d="m98.74,11.6c-3.2,0-5.79-2.59-5.79-5.79s2.59-5.81,5.79-5.81,5.81,2.59,5.81,5.81-2.62,5.79-5.81,5.79Zm-3.42-5.79c0,1.87,1.55,3.42,3.42,3.42s3.39-1.55,3.39-3.42-1.52-3.44-3.39-3.44-3.42,1.57-3.42,3.44Z"/>
        <path class="cls-2" d="m117.05,7.22c0,3.03-1.79,4.51-4.79,4.51s-4.77-1.44-4.77-4.51V.25h2.46v6.97c0,1.22.31,2.43,2.31,2.43,1.76,0,2.32-.75,2.32-2.43V.25h2.47v6.97Z"/>
        <path class="cls-2" d="m123.59,2.32h-3.56V.27h9.56v2.07h-3.53v9.12h-2.46V2.32Z"/>
        <path class="cls-2" d="m132.57.25h2.47v11.21h-2.47V.25Z"/>
        <path class="cls-2" d="m149.46,11.23h-4.15c-.5.16-1.04.24-1.59.24-3.14,0-5.7-2.56-5.7-5.7S140.58.03,143.72.03s5.73,2.54,5.73,5.73c0,1.38-.41,2.26-1.23,3.12h1.21l.02,2.34Zm-9.09-5.46c0,1.84,1.52,3.31,3.36,3.31s3.34-1.48,3.34-3.31-1.48-3.34-3.34-3.34-3.36,1.48-3.36,3.34Z"/>
        <path class="cls-2" d="m162.09,7.22c0,3.03-1.79,4.51-4.79,4.51s-4.77-1.44-4.77-4.51V.25h2.46v6.97c0,1.22.31,2.43,2.31,2.43,1.76,0,2.32-.75,2.32-2.43V.25h2.47v6.97Z"/>
        <path class="cls-2" d="m167.88,6.99v2.39h6.33v2.07h-8.71V.2h8.18v2.07h-5.79v2.53h5.12v2.18h-5.12Z"/>
      </g>
      <g>
        <path class="cls-2" d="m14.32,115.94c.05.23.23.34.52.34h.74v.51h-3.63v-.51h.81c.21-.03.37-.14.47-.33v-6.59c-.03-.17-.21-.29-.54-.34h-.74v-.51h3.63v.51h-.8c-.21.03-.36.14-.47.34v3.33l3.66-3.1c.03-.08.05-.16.05-.22,0-.17-.13-.29-.39-.35h-.48v-.51h3.19v.52h-.41c-.51.14-.97.38-1.39.74l-2.64,2.26,3.83,3.89c.24.24.55.35.96.35h.38v.52h-3.66v-.51h.52c.27-.1.4-.17.4-.23s-.06-.19-.17-.4l-2.95-3.02-.9.78v2.53Z"/>
        <path class="cls-2" d="m29.4,115.94c.05.23.23.34.52.34h.74v.51h-3.63v-.51h.81c.21-.04.37-.15.47-.34v-2.82l-2.45-3.76c-.11-.19-.34-.3-.71-.33h-.88v-.52h4.05v.51h-.59c-.3.05-.46.17-.5.34l1.8,2.92,1.85-2.92c-.04-.17-.21-.29-.51-.34h-.62v-.51h3.49v.54h-1.06c-.24.03-.42.13-.54.31l-2.25,3.43v3.16Z"/>
        <path class="cls-2" d="m38.48,116.43c-.65-.4-1.17-.92-1.56-1.57-.4-.65-.59-1.38-.59-2.17s.2-1.52.59-2.18c.4-.67.92-1.2,1.56-1.6.65-.4,1.36-.6,2.14-.6s1.5.19,2.14.57c.64.38,1.16.9,1.56,1.57s.6,1.41.6,2.24-.2,1.56-.6,2.22-.92,1.17-1.56,1.56c-.64.38-1.36.58-2.14.58s-1.5-.2-2.14-.59Zm2.21-7.53h-.38c-.65,0-1.25.37-1.8,1.12s-.83,1.65-.83,2.71.3,1.94.89,2.63,1.31,1.04,2.14,1.04,1.52-.35,2.05-1.06c.54-.7.8-1.61.8-2.72s-.29-2.01-.88-2.7c-.59-.69-1.25-1.03-1.99-1.03Z"/>
        <path class="cls-2" d="m52.46,109.45v6.36c.14.27.27.42.41.43h1.27v.55h-4.38v-.52h1.08c.14-.02.25-.07.34-.17.09-.1.15-.21.18-.33v-6.5c-.08-.17-.19-.27-.35-.32-1.67,0-2.51.37-2.51,1.12v.39h-.5v-2.05h7.9v2.05h-.5v-.39c0-.75-.42-1.12-1.25-1.12h-1.35c-.2.11-.31.27-.34.5Z"/>
        <path class="cls-2" d="m61.14,116.43c-.65-.4-1.17-.92-1.56-1.57-.4-.65-.59-1.38-.59-2.17s.2-1.52.59-2.18c.4-.67.92-1.2,1.56-1.6.65-.4,1.36-.6,2.14-.6s1.5.19,2.14.57c.64.38,1.16.9,1.56,1.57s.6,1.41.6,2.24-.2,1.56-.6,2.22-.92,1.17-1.56,1.56c-.64.38-1.36.58-2.14.58s-1.5-.2-2.14-.59Zm2.21-7.53h-.38c-.65,0-1.25.37-1.8,1.12s-.83,1.65-.83,2.71.3,1.94.89,2.63,1.31,1.04,2.14,1.04,1.52-.35,2.05-1.06c.54-.7.8-1.61.8-2.72s-.29-2.01-.88-2.7c-.59-.69-1.25-1.03-1.99-1.03Z"/>
        <path class="cls-2" d="m74.64,112.8c-.2-.2-.3-.43-.3-.71s.1-.51.3-.71.43-.3.71-.3.51.1.71.3c.2.2.3.43.3.71s-.1.51-.3.71c-.2.2-.43.3-.71.3s-.51-.1-.71-.3Z"/>
        <path class="cls-2" d="m84.89,115.94c.05.23.23.34.52.34h.74v.51h-3.63v-.51h.81c.21-.03.37-.14.47-.33v-6.59c-.03-.17-.21-.29-.54-.34h-.74v-.51h3.63v.51h-.8c-.21.03-.36.14-.47.34v3.33l3.66-3.1c.03-.08.05-.16.05-.22,0-.17-.13-.29-.39-.35h-.48v-.51h3.19v.52h-.41c-.51.14-.97.38-1.39.74l-2.64,2.26,3.83,3.89c.24.24.55.35.96.35h.38v.52h-3.66v-.51h.52c.27-.1.4-.17.4-.23s-.06-.19-.17-.4l-2.95-3.02-.9.78v2.53Z"/>
        <path class="cls-2" d="m97.21,115.94c.05.23.23.34.53.34h.74v.51h-3.63v-.51h.81c.21-.04.37-.15.47-.34v-6.58c-.03-.17-.21-.29-.54-.34h-.74v-.51h3.63v.51h-.8c-.21.03-.36.14-.47.34v6.58Z"/>
        <path class="cls-2" d="m106.13,109.45v6.36c.14.27.27.42.41.43h1.27v.55h-4.38v-.52h1.08c.14-.02.25-.07.34-.17.09-.1.15-.21.18-.33v-6.5c-.08-.17-.19-.27-.35-.32-1.67,0-2.51.37-2.51,1.12v.39h-.5v-2.05h7.91v2.05h-.5v-.39c0-.75-.42-1.12-1.25-1.12h-1.35c-.2.11-.31.27-.34.5Z"/>
        <path class="cls-2" d="m120.91,116.28h.63v.51h-3.4v-.51h.68c.16,0,.27-.05.34-.14.06-.09.1-.17.1-.24v-.15l-.73-2.02h-3.19l-.71,2.02v.14c0,.08.04.15.11.23.08.08.18.13.32.15h.68v.51h-2.98v-.51h.57c.14-.02.27-.08.39-.18.11-.1.19-.21.24-.34l2.65-7.4h1.03l2.65,7.4c.11.3.32.48.63.52Zm-5.37-3.08h2.81l-1.4-3.94-1.4,3.94Z"/>
        <path class="cls-2" d="m129.86,115.94c.05.23.23.34.52.34h.74v.51h-3.63v-.51h.81c.21-.04.37-.15.47-.34v-2.82l-2.45-3.76c-.11-.19-.34-.3-.71-.33h-.88v-.52h4.05v.51h-.59c-.3.05-.46.17-.5.34l1.8,2.92,1.85-2.92c-.04-.17-.21-.29-.51-.34h-.62v-.51h3.49v.54h-1.06c-.24.03-.42.13-.54.31l-2.25,3.43v3.16Z"/>
        <path class="cls-2" d="m145.04,116.28h.63v.51h-3.4v-.51h.68c.16,0,.27-.05.34-.14.06-.09.1-.17.1-.24v-.15l-.73-2.02h-3.19l-.71,2.02v.14c0,.08.04.15.11.23.08.08.18.13.32.15h.68v.51h-2.98v-.51h.57c.14-.02.27-.08.39-.18.11-.1.19-.21.24-.34l2.65-7.4h1.03l2.65,7.4c.11.3.32.48.63.52Zm-5.37-3.08h2.81l-1.4-3.94-1.4,3.94Z"/>
        <path class="cls-2" d="m150.95,115.59c0,.46.32.68.97.68h.3v.51h-3.24v-.51h.4c.58-.03.88-.25.88-.68v-6.01c0-.33-.18-.52-.54-.57h-.74v-.51h1.96l3.62,6.42,3.24-6.42h2.34v.51h-.8c-.3.05-.46.24-.46.57v6.01c0,.46.32.68.96.68h.3v.51h-3.63v-.51h.4c.58-.03.88-.25.88-.68v-5.67l-3.38,6.62-3.46-6.06v5.11Z"/>
        <path class="cls-2" d="m171.58,116.28h.63v.51h-3.4v-.51h.68c.16,0,.27-.05.34-.14.06-.09.1-.17.1-.24v-.15l-.73-2.02h-3.19l-.71,2.02v.14c0,.08.04.15.11.23.08.08.18.13.32.15h.68v.51h-2.98v-.51h.57c.14-.02.27-.08.39-.18.11-.1.19-.21.24-.34l2.65-7.4h1.03l2.65,7.4c.11.3.32.48.63.52Zm-5.37-3.08h2.81l-1.4-3.94-1.4,3.94Z"/>
      </g>
      <g>
        <path class="cls-2" d="m66.83,91.26c-.05-.08-.18-.07-.3-.22-.09-.11-.18-.09-.27-.18-.09-.07-.18-.13-.18-.26v-.02c0-.1.08-.2.12-.26.09-.14.15-.2.26-.34.09-.12.17-.13.27-.12.06,0,.15.01.33.13.16.09.28.21.48.32.13.14.3.22.46.35.15.13.24.16.29.25.17.21.18.28.04.49-.1.13-.25.32-.35.41-.05.06-.19.13-.25.14-.13.01-.27-.14-.35-.22-.12-.12-.21-.13-.28-.25-.07-.11-.17-.08-.27-.22Zm6.84-1.71c.16.13.24.24.25.43,0,.19-.13.3-.28.48-.1.15-.23.25-.31.35-.15.08-.26.29-.36.37-.11.16-.26.23-.37.36-.09.15-.29.19-.34.32-.24.21-.34.27-.41.38-.18.11-.28.25-.39.33-.19.12-.3.2-.41.34-.18.12-.27.19-.42.33-.18.14-.3.19-.42.32-.16.16-.34.14-.45.28-.13.16-.29.18-.43.34-.1.12-.29.11-.44.29-.15.19-.3.11-.45.29-.08.1-.22.11-.32.19-.12.08-.16.14-.22.16-.11.08-.07.23-.23.29-.02,0-.04,0-.05,0-.11,0-.18-.12-.18-.16-.09-.14-.21-.25-.27-.37-.12-.1-.15-.21-.25-.35-.09-.03-.12-.16-.11-.22-.04-.12.24-.23.38-.3.26-.13.3-.06.44-.2.15-.11.32-.18.51-.3.05-.02.19-.09.25-.16.13-.07.2-.13.25-.16.06-.03.2-.12.25-.16.05-.06.13-.09.25-.17.17-.13.23-.13.38-.27.09-.12.26-.14.38-.28.15-.06.21-.14.38-.29.13-.04.25-.17.36-.29.11-.06.26-.15.36-.31.08-.12.27-.14.35-.31.07-.15.24-.17.34-.33.06-.15.25-.18.34-.33.08-.09.1-.14.21-.21.1-.09.13-.12.2-.22.07-.04.11-.14.2-.22.05-.06.16-.11.2-.23.14-.14.19-.31.37-.36.17-.03.33.23.46.34Zm-5.98-1.12c-.04-.06.06-.14.09-.2.03-.08.12-.23.23-.34.09-.09.21-.16.29-.15.12-.04.21.05.24.09.1.05.23.14.35.23.11.13.26.21.32.25.13.04.22.21.31.26.07.1.18.17.3.29.07.07.15.14.15.28,0,.12-.06.15-.11.23-.09.09-.2.3-.33.36-.04.07-.16.14-.23.13-.12.03-.21-.08-.33-.2-.06-.08-.18-.17-.28-.27-.07-.12-.16-.16-.29-.25-.14-.12-.24-.17-.3-.24-.13-.04-.2-.21-.31-.25-.11-.02-.12-.11-.1-.22Zm4.19-.71c.03-.09.04-.15.09-.2.15-.17.19-.16.31-.19.09-.01.21.03.36.16.11.13.22.15.31.24.1.1.16.14.29.25.09.08.15.16.18.31.02.09-.02.1-.08.2-.03.05-.06.06-.1.12-.08.09-.15.11-.22.12-.19.04-.28-.17-.41-.27-.09-.07-.19-.2-.3-.27-.13-.06-.15-.14-.31-.22-.11-.05-.14-.17-.12-.25Zm2.3-.33c0,.09-.04.14-.1.22-.05.03-.02.06-.09.1-.12.07-.14.14-.24.12-.14-.03-.28-.17-.38-.28-.09-.1-.21-.2-.3-.26-.1-.04-.16-.12-.3-.21-.08-.04-.14-.14-.14-.22s.04-.15.09-.22c.14-.15.22-.22.28-.22,0,0,.03,0,.04,0h.04c.11,0,.19.06.32.16.11.08.28.19.31.24.09.11.2.16.29.24s.18.18.18.32Z"/>
        <path class="cls-2" d="m88.24,93.78c0,.06-.02.13-.02.2,0,.03,0,.06,0,.08v.02c0,.23-.16.28-.3.29-.1,0-.2,0-.3,0-.09,0-.17,0-.24,0-.05,0-.09,0-.14,0-.14,0-.27-.02-.38-.02-.22.02-.36,0-.58,0-.13,0-.28,0-.4,0-.07,0-.12,0-.17,0-.2-.02-.4-.04-.59,0-.2-.01-.41,0-.58,0s-.43-.02-.58,0c-.19-.01-.43-.02-.62,0-.03,0-.06,0-.08,0-.16,0-.29-.06-.46-.02-.13.03-.26-.03-.53,0-.16.02-.36-.03-.56,0-.03,0-.06,0-.09,0h-.24c-.07,0-.14,0-.22.01-.19-.02-.29-.16-.3-.34v-.04c0-.07.01-.12.01-.17,0-.03,0-.06-.01-.1v-.06c0-.17.08-.3.27-.28.15.03.32-.02.55,0,.34.03.44-.01.54,0,.21.04.4-.03.7,0,.26.03.42.03.7,0,.2.03.38,0,.58,0,.25.02.43.04.7,0,.17.04.41-.24.43-.42s0-.37.04-.58c.06-.27-.02-.31.02-.59.03-.23-.19-.43-.38-.45-.14,0-.23.03-.39,0-.22-.04-.35.04-.5,0-.18-.05-.37.03-.5,0-.23-.06-.34.05-.49,0-.22-.06-.51.03-.76,0-.12,0-.3-.17-.27-.33.02-.1,0-.22,0-.31-.01-.15.06-.34.29-.34h.74c.08,0,.16,0,.25,0,.12,0,.26,0,.41,0,.27.02.43.02.67,0,.04-.01.08-.01.12-.01.2,0,.38.05.55.01.17.03.39.02.6,0h.51c.15,0,.34.15.3.35-.04.2,0,.29-.04.47-.06.21-.04.38-.03.54-.06.23.01.27-.03.47-.04.24-.03.48-.04.71,0,.19.15.47.37.48.12,0,.29.04.37.02.17-.04.21.02.34-.01.22-.05.22.03.41,0,.21-.04.33.12.33.33,0,.01.01.03.01.04Z"/>
        <path class="cls-2" d="m100.16,91.27c-.14.1-.19.25-.28.38-.08.12-.08.4-.05.58-.04.17-.02.48,0,.64,0,.25-.02.41,0,.63.03.25-.05.38,0,.62,0,.24,0,.48,0,.75,0,.29,0,.52,0,.75.03.15-.12.27-.33.27-.05,0-.13,0-.21,0s-.16,0-.23,0h-.03c-.2,0-.25-.12-.3-.3.03-.1,0-.28,0-.41,0-.15,0-.32,0-.54-.05-.2,0-.32,0-.53,0-.09-.03-.28,0-.42,0-.14-.02-.51,0-.69.03-.18-.16-.37-.39-.24-.15.09-.2.17-.28.2-.14.07-.21.09-.28.19-.13.07-.18.09-.28.18-.14.09-.21.1-.28.18-.11.02-.16.11-.3.18-.11.06-.18.11-.29.17-.07.04-.17.08-.29.17-.14.1-.2.08-.31.17-.06.03-.13.06-.2.07-.18.03-.25-.18-.35-.36-.03-.06-.19-.24-.19-.39v-.03c.02-.11.14-.25.26-.27.19-.03.18-.12.31-.16.14-.04.15-.12.3-.16.14-.03.2-.13.3-.17.1-.04.19-.1.29-.17l.29-.18c.09-.08.2-.12.29-.18.07-.05.22-.1.28-.18.05-.03.15-.1.28-.19.08-.05.19-.17.32-.23.12-.05.2-.21.3-.23.13-.03.15-.18.29-.21.09-.02.14-.2.29-.25.09-.03.11-.07.23-.17.11-.09.16-.19.2-.21.1-.05.19-.18.29-.29.15-.17.08-.37-.26-.33-.15.05-.44.03-.59.06-.25,0-.42.06-.56.05-.18,0-.39.06-.55.04-.12-.01-.18.04-.3.02-.15-.02-.28.05-.45.03-.16-.02-.32.03-.48.05-.24,0-.31-.1-.34-.3,0-.09-.07-.29-.04-.42-.04-.18.08-.33.21-.34.27-.02.55,0,.79-.04.09,0,.26,0,.41,0,.14,0,.3-.02.4-.02.17,0,.29,0,.41-.02.16-.01.25-.01.39-.02.18-.05.24.03.4-.03.09-.04.16,0,.29-.02.14-.03.2.02.34,0,.16-.03.21,0,.33-.02s.19.04.38-.09c.08-.05.03-.12.2-.14.15-.02.16.06.22.11.12.1.15.17.29.23.13.07.17.17.29.25.13.09.19.22.14.34-.06.15-.29.13-.37.27-.12.15-.2.24-.27.35-.11.11-.17.26-.3.37-.1.09-.17.28-.31.34-.09.07-.21.25-.33.32Zm-2-4.06c-.02-.06,0-.16.14-.23.11-.08.17-.11.27-.22.09-.06.11-.09.24-.1.13.02.23.11.28.15.13.1.21.19.29.25.12.06.19.23.27.27.05.03.13.17.26.28.07.08.2.14.25.29.03.1.11.17.11.25,0,.13-.05.18-.15.25-.16.11-.22.19-.34.25-.02.06-.15.09-.21.09-.1,0-.17-.02-.23-.11-.08-.12-.2-.19-.24-.3-.05-.13-.16-.14-.25-.31-.05-.09-.13-.14-.26-.29-.11-.1-.21-.17-.29-.28-.09-.05-.16-.14-.14-.24Zm4.91,5.94c0,.15-.04.25-.13.29-.05.12-.14.16-.22.25-.07.12-.17.16-.29.17-.16.01-.22-.18-.3-.21-.14-.05-.15-.17-.25-.23-.17-.1-.18-.23-.33-.31-.2-.11-.25-.19-.39-.33-.15-.07-.2-.16-.32-.28-.1-.1-.24-.13-.36-.24-.08-.07-.14-.09-.14-.24,0-.11-.02-.16.08-.26.07-.11.08-.13.16-.22.08-.09.12-.15.25-.17.12-.02.19.08.3.11.19.05.17.15.31.18.13.07.13.15.27.2.1.04.13.12.19.15.07.09.16.12.27.21.08.06.15.17.27.23.1.05.14.15.27.23.11.06.16.2.25.26.06.08.11.11.11.21Z"/>
        <path class="cls-2" d="m117.56,94.04c0,.13-.07.14-.14.23-.18.15-.29.26-.41.36-.04.03-.08.1-.21.1s-.26-.08-.29-.19c-.04-.11-.17-.17-.25-.34l-.13-.17c-.14-.1-.22-.25-.29-.39-.15-.11-.17-.27-.33-.36-.07-.09-.14-.15-.25-.22-.06-.07-.15-.14-.26-.23-.09-.11-.18-.15-.26-.23-.32-.19-.58-.17-.83.02-.12.11-.32.34-.5.45-.15.09-.28.27-.41.31-.22.07-.24.21-.42.3-.12.06-.19.16-.38.25-.12.06-.23.14-.31.18-.09.04-.25.13-.33.2-.08.04-.24.15-.34.18-.11.09-.23.15-.3.18-.15.07-.26.13-.39.13-.04,0-.08,0-.13-.02-.16,0-.19-.18-.27-.34-.07-.14-.23-.23-.23-.4v-.04c.04-.25.16-.29.26-.32.15-.05.21-.09.36-.13.19-.05.22-.13.34-.16.14-.03.18-.12.33-.17.13-.04.17-.13.32-.18.21-.07.3-.21.44-.28.18-.09.25-.21.43-.3.11-.06.28-.24.4-.33.14-.11.26-.23.4-.34.13-.07.25-.22.38-.36.14-.16.25-.21.34-.37.09-.13.21-.2.34-.4.08-.13.24-.26.32-.42.12-.08.12-.19.22-.3.09-.17-.06-.4-.3-.37-.23.03-.42.03-.62.05-.17.03-.24.05-.39.02-.14-.03-.22.04-.38.03-.22-.01-.54.08-.75.05-.1,0-.22.01-.35.02-.18,0-.34.04-.44.04-.17.04-.27.02-.45.02-.17,0-.29-.08-.29-.31,0-.14,0-.29-.03-.48-.03-.29.17-.37.36-.35.26-.02.48.02.72,0,.25.04.41-.01.66-.02.17,0,.47-.05.65-.03.22.03.41-.06.63-.03.19.03.24-.05.42-.03.16.02.23-.04.41-.02.15.02.3-.03.45-.02.14,0,.21-.02.38-.03.11-.03.19-.14.31-.14h.03c.17.02.3.2.45.32.17.1.22.23.33.3.09.04.11.17.1.23-.04.19-.1.16-.2.25-.08.07-.15.17-.2.19-.06.11-.13.26-.24.36-.14.18-.18.32-.28.46-.04.09-.14.23-.23.33-.08.15-.12.19-.2.31-.13.2-.11.53.11.69.13.1.16.19.29.23.06.09.16.16.3.24.14.1.17.18.28.25.08.03.1.18.28.28.09.05.15.19.2.21.09.04.09.17.22.23.07.03.09.15.21.24.09.07.14.18.18.23.07.05.17.12.17.33v.03Z"/>
      </g>
    </g>
  </g>
</svg>